<svg xmlns="http://www.w3.org/2000/svg" viewBox="0 0 64 64" role="img" aria-labelledby="title desc">
  <title id="title">English LMS fox</title>
  <desc id="desc">A friendly sage and orange fox mascot.</desc>
  <defs>
    <linearGradient id="fur" x1="12" y1="10" x2="52" y2="56" gradientUnits="userSpaceOnUse">
      <stop stop-color="#f3a35b"/>
      <stop offset="1" stop-color="#d86e3e"/>
    </linearGradient>
    <linearGradient id="scarf" x1="18" y1="43" x2="50" y2="58" gradientUnits="userSpaceOnUse">
      <stop stop-color="#5c8a66"/>
      <stop offset="1" stop-color="#2a9d94"/>
    </linearGradient>
  </defs>
  <path fill="url(#fur)" d="M11 8.5 26 16a20 20 0 0 1 12 0L53 8.5l-2.4 17.8A19.7 19.7 0 0 1 32 48 19.7 19.7 0 0 1 13.4 26.3L11 8.5Z"/>
  <path fill="#f9d0a2" d="m15.8 13.3 8.1 5.5-7 4.6-1.1-10.1Zm32.4 0-8.1 5.5 7 4.6 1.1-10.1Z"/>
  <path fill="#fff8ed" d="M20 30.2c2.5 7.5 6.6 11.2 12 11.2s9.5-3.7 12-11.2c-3.5 2.5-7.5 3.8-12 3.8s-8.5-1.3-12-3.8Z"/>
  <circle cx="23.5" cy="26" r="2.4" fill="#26372c"/>
  <circle cx="40.5" cy="26" r="2.4" fill="#26372c"/>
  <circle cx="22.7" cy="25.2" r=".7" fill="#fff"/>
  <circle cx="39.7" cy="25.2" r=".7" fill="#fff"/>
  <path fill="#26372c" d="M28.2 31.2c0-1.7 1.7-3 3.8-3s3.8 1.3 3.8 3c0 1.5-1.7 2.6-3.8 2.6s-3.8-1.1-3.8-2.6Z"/>
  <path fill="none" stroke="#26372c" stroke-linecap="round" stroke-width="1.8" d="M32 33.4v2.4m0 0c-2.1 0-3.4-.6-4.5-1.6m4.5 1.6c2.1 0 3.4-.6 4.5-1.6"/>
  <path fill="url(#scarf)" d="M15.8 42.5c4.7 4.1 10 6.1 16.2 6.1s11.5-2 16.2-6.1l3.2 5.6c-4.9 4.6-11.4 7.4-19.4 7.4s-14.5-2.8-19.4-7.4l3.2-5.6Z"/>
  <path fill="#f3a35b" d="m43.5 49.2 7.3 9.1-7.5-2.1-4.1-5.7 4.3-1.3Z"/>
</svg>
