<svg xmlns="http://www.w3.org/2000/svg" viewBox="0 0 96 64" role="img" aria-label="Бегущая лиса">
  <defs>
    <linearGradient id="runfur" x1="8" y1="12" x2="88" y2="52" gradientUnits="userSpaceOnUse">
      <stop stop-color="#f3a35b"/>
      <stop offset="1" stop-color="#d86e3e"/>
    </linearGradient>
    <linearGradient id="runtail" x1="4" y1="18" x2="34" y2="46" gradientUnits="userSpaceOnUse">
      <stop stop-color="#e8833a"/>
      <stop offset="1" stop-color="#c65d26"/>
    </linearGradient>
  </defs>
  <!-- Пушистый хвост с белым кончиком -->
  <path fill="url(#runtail)" d="M30 34C16 34 6 26 5 12c2-2 4-2 6-1 1 8 7 15 17 17l2 6Z"/>
  <path fill="#fff8ed" d="M5 12c2-2 4-2 6-1 .3 2.7 1 5.2 2.1 7.5C9.4 17.6 6.9 15.2 5 12Z"/>
  <!-- Дальние лапы (темнее) -->
  <path fill="#b55424" d="M40 46l-6 12 3 2 8-11-5-3Z"/>
  <path fill="#b55424" d="M64 47l4 11 3-1-2-12-5 2Z"/>
  <!-- Туловище -->
  <ellipse cx="52" cy="38" rx="22" ry="12" fill="url(#runfur)"/>
  <path fill="#fff8ed" d="M38 42c4 4 12 6 20 5-7 3-16 2-22-2l2-3Z" opacity=".85"/>
  <!-- Ближние лапы -->
  <path fill="#d86e3e" d="M46 47l-9 9 3 3 10-8-4-4Z"/>
  <path fill="#d86e3e" d="M62 48l8 8 3-3-6-9-5 4Z"/>
  <path fill="#26372c" d="M34 53l3 3 2-2-3-3-2 2Zm74 0-3 3-2-2 3-3 2 2Z" opacity="0"/>
  <!-- Голова -->
  <circle cx="74" cy="28" r="12" fill="url(#runfur)"/>
  <path fill="#f3a35b" d="M66 20 70 4l8 12-12 4Z"/>
  <path fill="#26372c" d="M69.5 11.5 70.6 6l3.4 5-4.5.5Z" opacity=".9"/>
  <path fill="#fff8ed" d="M76 30c3 1 6 4 7 8-3 1-7 0-10-3l3-5Z"/>
  <path fill="#26372c" d="M82.5 31.5c1.6.4 2.4 1.7 2 3-.4 1.2-1.8 1.8-3.2 1.4-1.4-.4-2.2-1.6-1.9-2.8.3-1.3 1.7-2 3.1-1.6Z"/>
  <circle cx="75" cy="26" r="2" fill="#26372c"/>
  <circle cx="74.4" cy="25.4" r=".6" fill="#fff"/>
  <!-- Шарф -->
  <path fill="#2a9d94" d="M62 34c4 3 9 4 14 3l1 5c-6 2-12 1-17-3l2-5Z"/>
  <path fill="#5c8a66" d="M73 37l6 6-5 1-3-5 2-2Z"/>
</svg>
